<svg xmlns="http://www.w3.org/2000/svg" viewBox="0 0 32 32" role="img" aria-label="Vincenzo Capasso">
  <!-- Variante per i browser con tema scuro: la mela nera sparisce
       sulla barra scura, quindi qui è bianca. Stesso glifo e
       stesso margine di `favicon.svg`. -->
  <g transform="translate(4 4)">
    <path fill="#fff" d="M20.205 11.012c-.017-3.883 3.17-5.748 3.315-5.842-1.79-2.634-4.63-2.99-5.63-3.03-2.396-.24-4.682 1.41-5.897 1.41-1.24 0-3.1-1.39-5.1-1.35-2.62.04-5.05 1.53-6.39 3.86-2.72 4.72-.69 11.68 1.94 15.5 1.29 1.87 2.81 3.96 4.82 3.89 1.93-.08 2.66-1.25 4.99-1.25 2.32 0 3 1.25 5.02 1.21 2.08-.04 3.4-1.9 4.67-3.78 1.47-2.17 2.08-4.27 2.1-4.38-.05-.02-4.03-1.55-4.05-6.15zM16.6 4.66c1.06-1.28 1.77-3.06 1.57-4.83-1.52.06-3.36 1.01-4.44 2.28-.97 1.12-1.83 2.91-1.6 4.63 1.69.13 3.42-.86 4.47-2.08z"/>
  </g>
</svg>
